<svg width="20" height="20" viewBox="0 0 20 20" fill="none" xmlns="http://www.w3.org/2000/svg">
<path fill-rule="evenodd" clip-rule="evenodd" d="M1 0.8H8.33341C8.44387 0.8 8.53341 0.889544 8.53341 1V8.33341C8.53341 8.44387 8.44387 8.53341 8.33341 8.53341H1C0.889543 8.53341 0.8 8.44387 0.8 8.33341V1C0.8 0.889543 0.889544 0.8 1 0.8ZM0 1C0 0.447716 0.447715 0 1 0H8.33341C8.88569 0 9.33341 0.447715 9.33341 1V8.33341C9.33341 8.88569 8.88569 9.33341 8.33341 9.33341H1C0.447716 9.33341 0 8.88569 0 8.33341V1ZM12.0247 0.876342L18.9404 1.42322C19.0505 1.43193 19.1327 1.52825 19.124 1.63836L18.5771 8.55403C18.5684 8.66414 18.4721 8.74635 18.362 8.73764L11.4463 8.19076C11.3362 8.18205 11.254 8.08573 11.2627 7.97562L11.8096 1.05995C11.8183 0.94984 11.9146 0.867635 12.0247 0.876342ZM11.0121 0.996888C11.0556 0.446322 11.5372 0.0352942 12.0878 0.0788318L19.0034 0.625708C19.554 0.669245 19.965 1.15086 19.9215 1.70143L19.3746 8.61709C19.3311 9.16766 18.8495 9.57869 18.2989 9.53515L11.3832 8.98827C10.8327 8.94473 10.4216 8.46312 10.4652 7.91255L11.0121 0.996888ZM19.0002 11.4666H11.6668C11.5563 11.4666 11.4668 11.5561 11.4668 11.6666V19C11.4668 19.1105 11.5563 19.2 11.6668 19.2H19.0002C19.1106 19.2 19.2002 19.1105 19.2002 19V11.6666C19.2002 11.5561 19.1106 11.4666 19.0002 11.4666ZM11.6668 10.6666C11.1145 10.6666 10.6668 11.1143 10.6668 11.6666V19C10.6668 19.5523 11.1145 20 11.6668 20H19.0002C19.5525 20 20.0002 19.5523 20.0002 19V11.6666C20.0002 11.1143 19.5524 10.6666 19.0002 10.6666H11.6668ZM1 11.4666H8.33341C8.44387 11.4666 8.53341 11.5561 8.53341 11.6666V19C8.53341 19.1105 8.44387 19.2 8.33341 19.2H1C0.889543 19.2 0.8 19.1105 0.8 19V11.6666C0.8 11.5561 0.889544 11.4666 1 11.4666ZM0 11.6666C0 11.1143 0.447715 10.6666 1 10.6666H8.33341C8.88569 10.6666 9.33341 11.1143 9.33341 11.6666V19C9.33341 19.5523 8.88569 20 8.33341 20H1C0.447716 20 0 19.5523 0 19V11.6666Z" fill="white"/>
</svg>
