<svg width="20" height="20" viewBox="0 0 20 20" fill="none" xmlns="http://www.w3.org/2000/svg">
<path d="M17.8383 0H15.0391C14.7155 0 14.4531 0.262344 14.4531 0.585938C14.4531 0.909531 14.7155 1.17188 15.0391 1.17188H17.8383C18.3841 1.17188 18.8281 1.61594 18.8281 2.16176V4.96094C18.8281 5.28453 19.0905 5.54688 19.4141 5.54688C19.7377 5.54688 20 5.28453 20 4.96094V2.16176C20 0.969766 19.0302 0 17.8383 0V0Z" fill="white"/>
<path d="M0.585938 5.54688C0.909531 5.54688 1.17188 5.28453 1.17188 4.96094V2.16176C1.17188 1.61594 1.61594 1.17188 2.16172 1.17188H4.96094C5.28453 1.17188 5.54688 0.909531 5.54688 0.585938C5.54688 0.262344 5.28453 0 4.96094 0H2.16172C0.969766 0 0 0.969766 0 2.16176V4.96094C0 5.28453 0.262344 5.54688 0.585938 5.54688Z" fill="white"/>
<path d="M4.96094 18.8281H2.16172C1.61594 18.8281 1.17188 18.3841 1.17188 17.8382V15.0391C1.17188 14.7155 0.909531 14.4531 0.585938 14.4531C0.262344 14.4531 0 14.7155 0 15.0391V17.8382C0 19.0302 0.969766 20 2.16172 20H4.96094C5.28453 20 5.54688 19.7377 5.54688 19.4141C5.54688 19.0905 5.28453 18.8281 4.96094 18.8281Z" fill="white"/>
<path d="M19.4141 14.4531C19.0905 14.4531 18.8281 14.7155 18.8281 15.0391V17.8382C18.8281 18.3841 18.3841 18.8281 17.8383 18.8281H15.0391C14.7155 18.8281 14.4531 19.0905 14.4531 19.4141C14.4531 19.7377 14.7155 20 15.0391 20H17.8383C19.0303 20 20 19.0302 20 17.8382V15.0391C20 14.7155 19.7377 14.4531 19.4141 14.4531Z" fill="white"/>
<path d="M13.3454 4.29688H15.2038C15.4576 4.29688 15.6641 4.50332 15.6641 4.75711V6.61547C15.6641 6.93906 15.9264 7.20141 16.25 7.20141C16.5736 7.20141 16.8359 6.93906 16.8359 6.61547V4.75711C16.8359 3.85715 16.1037 3.125 15.2038 3.125H13.3454C13.0218 3.125 12.7595 3.38734 12.7595 3.71094C12.7595 4.03453 13.0218 4.29688 13.3454 4.29688Z" fill="white"/>
<path d="M3.16406 4.75711V6.61547C3.16406 6.93906 3.42641 7.20141 3.75 7.20141C4.07359 7.20141 4.33594 6.93906 4.33594 6.61547V4.75711C4.33594 4.50332 4.54242 4.29688 4.79617 4.29688H6.65457C6.97816 4.29688 7.24051 4.03453 7.24051 3.71094C7.24051 3.38734 6.97816 3.125 6.65457 3.125H4.79617C3.89625 3.125 3.16406 3.85715 3.16406 4.75711Z" fill="white"/>
<path d="M6.65457 15.625H4.79617C4.54238 15.625 4.33594 15.4185 4.33594 15.1648V13.3064C4.33594 12.9828 4.07359 12.7205 3.75 12.7205C3.42641 12.7205 3.16406 12.9828 3.16406 13.3064V15.1648C3.16406 16.0647 3.89625 16.7969 4.79617 16.7969H6.65457C6.97816 16.7969 7.24051 16.5345 7.24051 16.2109C7.24051 15.8873 6.97816 15.625 6.65457 15.625Z" fill="white"/>
<path d="M16.8359 15.1648V13.3064C16.8359 12.9828 16.5736 12.7205 16.25 12.7205C15.9264 12.7205 15.6641 12.9828 15.6641 13.3064V15.1648C15.6641 15.4185 15.4576 15.625 15.2038 15.625H13.3454C13.0218 15.625 12.7595 15.8873 12.7595 16.2109C12.7595 16.5345 13.0218 16.7969 13.3454 16.7969H15.2038C16.1037 16.7969 16.8359 16.0647 16.8359 15.1648Z" fill="white"/>
<path d="M0.0390625 10C0.0390625 10.3236 0.301406 10.5859 0.625 10.5859H19.375C19.6986 10.5859 19.9609 10.3236 19.9609 10C19.9609 9.67641 19.6986 9.41406 19.375 9.41406H0.625C0.301406 9.41406 0.0390625 9.67641 0.0390625 10Z" fill="white"/>
</svg>
