<svg width="23" height="23" viewBox="0 0 23 23" fill="none" xmlns="http://www.w3.org/2000/svg">
<path d="M9.82298 10.7812H0.71875C0.321999 10.7812 0 10.4593 0 10.0625C0 9.66575 0.321999 9.34375 0.71875 9.34375H9.82298C10.2197 9.34375 10.5417 9.66575 10.5417 10.0625C10.5417 10.4593 10.2197 10.7812 9.82298 10.7812Z" fill="white"/>
<path d="M6.22923 14.3751C6.04515 14.3751 5.86125 14.3051 5.72122 14.1644C5.44046 13.8834 5.44046 13.4282 5.72122 13.1475L8.80714 10.0617L5.72122 6.97685C5.44046 6.69591 5.44046 6.24072 5.72122 5.95996C6.00198 5.6792 6.45717 5.6792 6.73811 5.95996L10.3319 9.55371C10.6126 9.83448 10.6126 10.2897 10.3319 10.5706L6.73811 14.1644C6.5972 14.3051 6.41312 14.3751 6.22923 14.3751Z" fill="white"/>
<path d="M15.3333 22.9999C14.2762 22.9999 13.4167 22.1403 13.4167 21.0832V3.83321C13.4167 3.01391 13.9381 2.28271 14.7142 2.01335L20.4719 0.093819C21.7599 -0.301002 23 0.654465 23 1.91666V19.1667C23 19.9851 22.4787 20.7152 21.7034 20.9855L15.9438 22.906C15.7339 22.9711 15.5395 22.9999 15.3333 22.9999ZM21.0833 1.43744C21.021 1.43744 20.9683 1.44516 20.9118 1.46236L15.1782 3.37417C14.9902 3.43944 14.8542 3.62913 14.8542 3.83321V21.0832C14.8542 21.4101 15.2087 21.6305 15.5049 21.5375L21.2386 19.6257C21.4255 19.5604 21.5625 19.3707 21.5625 19.1667V1.91666C21.5625 1.6531 21.3479 1.43744 21.0833 1.43744Z" fill="white"/>
<path d="M8.38548 4.79173C7.98873 4.79173 7.66673 4.46973 7.66673 4.07298V2.63548C7.66673 1.18166 8.84821 0 10.302 0H21.0833C21.48 0 21.802 0.321999 21.802 0.71875C21.802 1.1155 21.48 1.4375 21.0833 1.4375H10.302C9.64172 1.4375 9.10423 1.97516 9.10423 2.63548V4.07298C9.10423 4.46973 8.78223 4.79173 8.38548 4.79173Z" fill="white"/>
<path d="M14.1355 20.1251H10.302C8.84821 20.1251 7.66673 18.9434 7.66673 17.4896V16.0521C7.66673 15.6554 7.98873 15.3334 8.38548 15.3334C8.78223 15.3334 9.10423 15.6554 9.10423 16.0521V17.4896C9.10423 18.1499 9.64171 18.6876 10.302 18.6876H14.1355C14.5322 18.6876 14.8542 19.0096 14.8542 19.4063C14.8542 19.8031 14.5322 20.1251 14.1355 20.1251Z" fill="white"/>
</svg>
