<svg width="23" height="23" viewBox="0 0 23 23" fill="none" xmlns="http://www.w3.org/2000/svg">
<g clip-path="url(#clip0)">
<path d="M20.2239 18.3036C20.1563 18.2597 19.6474 17.9032 19.1379 16.8249C18.2023 14.8446 18.0059 12.0551 18.0059 10.0636C18.0059 10.055 18.0057 10.0464 18.0054 10.0377C17.9952 7.40582 16.4192 5.137 14.1639 4.11902V2.56216C14.1639 1.14937 13.0164 0 11.606 0H11.394C9.98353 0 8.83604 1.14937 8.83604 2.56216V4.11893C6.57324 5.14019 4.9941 7.4206 4.9941 10.0636C4.9941 12.0551 4.7977 14.8446 3.86202 16.8249C3.35256 17.9032 2.84373 18.2596 2.77608 18.3036C2.49119 18.4354 2.35071 18.74 2.41626 19.0486C2.48243 19.3603 2.77379 19.5752 3.09197 19.5752H8.031C8.05858 21.4683 9.60362 23 11.5 23C13.3964 23 14.9414 21.4683 14.969 19.5752H19.908C20.2262 19.5752 20.5176 19.3603 20.5837 19.0486C20.6492 18.74 20.5088 18.4354 20.2239 18.3036ZM10.1837 2.56216C10.1837 1.89368 10.7267 1.34986 11.394 1.34986H11.606C12.2734 1.34986 12.8163 1.89368 12.8163 2.56216V3.68148C12.391 3.59357 11.9507 3.5473 11.4998 3.5473C11.0491 3.5473 10.6089 3.59353 10.1838 3.68135V2.56216H10.1837ZM11.5 21.6501C10.3467 21.6501 9.40601 20.724 9.37865 19.5753H13.6213C13.594 20.7239 12.6533 21.6501 11.5 21.6501ZM14.2133 18.2253C14.2131 18.2253 4.62762 18.2253 4.62762 18.2253C4.7442 18.0437 4.86284 17.838 4.98076 17.6055C5.88387 15.8247 6.3418 13.2872 6.3418 10.0636C6.3418 7.21481 8.65568 4.89716 11.4998 4.89716C14.3439 4.89716 16.6577 7.21481 16.6577 10.0659C16.6577 10.0742 16.6579 10.0824 16.6582 10.0907C16.6608 13.3014 17.1186 15.8297 18.0192 17.6055C18.1372 17.838 18.2558 18.0437 18.3724 18.2253H14.2133Z" fill="white"/>
</g>
<defs>
<clipPath id="clip0">
<rect width="23" height="23" fill="white"/>
</clipPath>
</defs>
</svg>
